<?xml version="1.0" encoding="UTF-8" standalone="no"?>
<!-- Created with Inkscape (http://www.inkscape.org/) -->

<svg
   version="1.1"
   id="svg2"
   width="512"
   height="512"
   viewBox="0 0 512 512"
   sodipodi:docname="logo1.svg"
   inkscape:version="1.1.2 (0a00cf5339, 2022-02-04)"
   xmlns:inkscape="http://www.inkscape.org/namespaces/inkscape"
   xmlns:sodipodi="http://sodipodi.sourceforge.net/DTD/sodipodi-0.dtd"
   xmlns="http://www.w3.org/2000/svg"
   xmlns:svg="http://www.w3.org/2000/svg">
  <defs
     id="defs6" />
  <sodipodi:namedview
     id="namedview4"
     pagecolor="#ffffff"
     bordercolor="#666666"
     borderopacity="1.0"
     inkscape:pageshadow="2"
     inkscape:pageopacity="0.0"
     inkscape:pagecheckerboard="0"
     showgrid="false"
     inkscape:zoom="0.70214844"
     inkscape:cx="551.87761"
     inkscape:cy="123.90542"
     inkscape:window-width="2560"
     inkscape:window-height="1403"
     inkscape:window-x="0"
     inkscape:window-y="0"
     inkscape:window-maximized="1"
     inkscape:current-layer="g8" />
  <g
     inkscape:groupmode="layer"
     inkscape:label="Image"
     id="g8">
    <g
       id="g4038"
       transform="translate(-584.24426,58.115177)"
       inkscape:export-filename="/home/toni/Documents/me/numberbee/var1/favicon.ico"
       inkscape:export-xdpi="12"
       inkscape:export-ydpi="12">
      <path
         style="fill:#d4aa00"
         d="M 587.40371,201.05599 V -54.943992 h 256 255.99999 v 255.999982 256 h -255.99999 -256 z"
         id="path30" />
      <path
         style="fill:#e3dedb;stroke-width:1.13593"
         d="m 906.42608,403.79901 c 2.3027,-2.0844 2.3905,-3.1591 2.3905,-29.2502 v -27.0862 h 32.97834 c 36.4161,0 39.2679,-0.4477 42.4855,-6.6696 1.4963,-2.8938 1.7793,-8.7333 1.7792,-36.7232 l -3e-4,-33.2823 17.25558,0.3878 c 23.7287,0.5334 28.8016,-0.2124 33.5168,-4.9275 l 3.7525,-3.7526 v -54.6202 -54.6202 l -3.3121,-3.7097 -3.3122,-3.7096 -23.6661,-0.568 -23.66618,-0.568 -0.2954,-36.3497 c -0.2698,-33.205701 -0.4758,-36.595301 -2.3814,-39.189501 -4.0095,-5.4585 -5.3686,-5.645 -41.2698,-5.6629 -31.36794,-0.015 -33.72064,-0.1556 -33.68634,-2.0046 0.2857,-15.3885 -0.4102,-71.808705 -0.9103,-73.801105 -1.5475,-6.166 -3.0138,-6.3251 -63.6129,-6.9053 -30.7039,-0.2939 -57.14267,-0.2038 -58.75277,0.2003 -1.61,0.4041 -3.9949,1.8786 -5.2997,3.2768 -2.3235,2.4897 -2.3651,3.3268 -2.0193,40.5957 l 0.3531,38.053505 -37.5381,0.568 c -33.6653,0.5094 -37.8603,0.7792 -40.6601,2.6152 -1.7172,1.126 -3.6618,3.4263 -4.3213,5.1117 -0.7675,1.9613 -1.0905,14.514 -0.8973,34.870401 0.1661,17.4933 0.2174,33.4375 0.1141,35.4315 l -0.188,3.6256 -22.8141,0.3502 -22.8141,0.3502 -3.3122,3.7096 -3.3123,3.7097 0.017,53.6547 c 0.018,57.5362 -0.034,56.9941 5.916,61.4115 2.8376,2.1064 4.8703,2.3032 24.6074,2.3813 l 21.5143,0.085 0.7416,12.4952 c 0.4079,6.8724 0.5803,22.0401 0.3831,33.706 -0.3389,20.0492 -0.2283,21.3866 2.0197,24.4224 4.1345,5.5834 7.1164,5.9726 45.3307,5.9166 l 35.2138,-0.052 -0.3246,26.7986 -0.3246,26.7985 2.858,2.8579 2.8579,2.858 60.10817,-0.3132 c 57.2739,-0.2983 60.2209,-0.4151 62.4986,-2.477 z"
         id="path3715" />
      <g
         id="g3947"
         transform="translate(-199.27916,-238.04158)">
        <path
           style="fill:#000000"
           d="m 982.27819,550.42486 c -10.5461,-3.37276 -16.9999,-8.94158 -21.4581,-18.51576 -4.6525,-9.99135 -2.3298,-22.30356 5.7494,-30.47717 9.0946,-9.20088 17.8068,-11.53859 23.8987,-6.41264 l 3.1797,2.67559 -3.1174,-6.17559 c -1.7146,-3.39657 -3.3988,-6.17559 -3.7428,-6.17559 -0.3439,0 -1.1778,0.75551 -1.853,1.6789 -1.1003,1.50475 -4.2237,1.67899 -30.1102,1.67974 -26.3246,7.6e-4 -29.5606,-0.18642 -36.5368,-2.11347 -14.2137,-3.92628 -21.6512,-9.278 -27.0306,-19.45011 -3.3271,-6.29134 -3.2909,-19.33025 0.072,-26.1039 5.1419,-10.35535 15.7943,-17.67723 31.6122,-21.72837 7.2,-1.844 10.6771,-2.03007 34.7715,-1.86069 14.7244,0.10351 26.9623,-0.003 27.1955,-0.23576 0.2332,-0.23318 0.9176,-3.51414 1.521,-7.29104 0.6033,-3.7769 1.9253,-9.22365 2.9376,-12.1039 2.0046,-5.7034 8.3323,-15.56115 12.43081,-19.3654 l 2.5791,-2.39399 -2.428,-2.88544 c -3.53421,-4.20023 -4.25901,-9.34304 -1.7839,-12.6582 4.3883,-5.87767 13.5238,-4.95764 19.8046,1.99453 l 3.4477,3.81622 3.6056,-1.71938 c 3.3522,-1.59856 3.5656,-1.96675 3.0367,-5.23956 -0.3129,-1.9361 -4.2925,-10.94518 -8.8435,-20.02018 l -8.2746,-16.5 -6,-3.11992 c -9.96221,-5.18019 -13.49071,-13.48031 -8.04551,-18.92552 3.28381,-3.28378 6.95371,-3.12431 13.83181,0.60102 8.5172,4.61311 12.3256,9.73172 20.5023,27.55604 9.0935,19.82275 8.5283,18.8303 10.9289,19.1903 1.5184,0.2277 2.5171,-0.7557 4.0621,-4 1.1267,-2.36606 4.943,-10.37692 8.4805,-17.80192 3.5376,-7.425 7.678,-14.97651 9.201,-16.78115 3.4067,-4.03668 10.6324,-9.09849 14.6211,-10.24243 8.7665,-2.5142 15.078,7.43233 9.0866,14.31989 -0.8595,0.98796 -4.2491,3.22815 -7.5325,4.97819 -7.4016,3.94504 -9.2996,6.81109 -18.1075,27.34323 -7.1544,16.67787 -7.1829,17.04029 -1.5238,19.38438 2.7553,1.14127 3.2231,0.96704 7.4915,-2.79016 8.6686,-7.63039 15.019,-8.89456 20.2054,-4.02225 1.6733,1.57196 2.2981,3.27449 2.2981,6.26211 0,4.89289 -1.8313,7.82142 -5.9602,9.53169 -1.6719,0.69253 -3.0398,1.43072 -3.0398,1.64042 0,0.20971 1.7462,1.95893 3.8805,3.88716 6.5991,5.96183 13.2918,20.80679 14.6473,32.48892 l 0.6382,5.5 24.0683,-0.31673 c 27.8952,-0.36709 33.9673,0.53099 46.7089,6.90837 15.541,7.77849 24.4767,21.77583 22.102,34.62167 -2.7261,14.74682 -12.1374,23.28562 -30.9236,28.05669 -9.1422,2.32183 -61.6773,2.56692 -63.0819,0.2943 -1.345,-2.17618 -3.4566,0.0335 -7.6403,7.99507 -4.0213,7.65264 -14.8657,20.8263 -20.0359,24.33958 l -3.4276,2.32908 2.5501,1.67084 c 2.3965,1.57026 2.5906,1.56499 3.2247,-0.0875 0.3711,-0.96709 4.162,-6.49528 8.4241,-12.28485 4.2621,-5.78958 9.0282,-12.3265 10.5913,-14.5265 3.715,-5.22884 7.3908,-5.69121 14.9279,-1.87778 14.0768,7.12222 21.1962,24.29922 15.381,37.1097 -2.9965,6.60097 -10.2158,13.62406 -17.3007,16.8305 -9.1106,4.12319 -18.0191,4.03869 -26.2343,-0.24884 -3.3,-1.72226 -7.5353,-4.63488 -9.4118,-6.47248 -4.2452,-4.15731 -9.0882,-11.63739 -9.0882,-14.0369 0,-1.87006 -1.483,-2.44978 -2.4139,-0.94361 -0.2925,0.47334 -3.3193,1.64271 -6.7261,2.59861 -9.0822,2.54834 -17.1877,1.48816 -30.11,-3.93832 -1.3552,-0.56909 -1.75,-0.2447 -1.75,1.43785 0,4.52089 -6.6308,13.31511 -13.7141,18.18851 -4.6873,3.22494 -14.74261,6.89558 -18.62501,6.79896 -1.1885,-0.0296 -4.7096,-0.86885 -7.8246,-1.86506 z"
           id="path3717" />
        <path
           id="path3721"
           style="fill:#d4aa00"
           d="m 1053.057,518.59055 c 6.4624,-2.45555 16.6872,-10.77005 21.9045,-17.81217 10.0989,-13.631 14.2287,-27.19057 14.4499,-47.44419 0.082,-7.51464 -0.1861,-13.99988 -0.5958,-14.41166 -0.4097,-0.41177 -2.8847,0.40077 -5.5,1.80564 -12.4501,6.68799 -33.9877,11.47883 -46.255,10.28899 -9.3749,-0.90929 -23.3663,-5.08952 -31.8178,-9.50624 -6.38716,-3.33795 -7.40445,-3.61377 -7.99995,-2.169 -0.37524,0.91039 -0.65444,7.95525 -0.62044,15.65525 0.0497,11.26058 0.49257,15.52807 2.26321,21.80932 5.28898,18.76249 15.93588,32.32965 31.55928,40.21574 8.134,4.10566 14.7302,4.56317 22.6121,1.56832 z m -73.74641,-42.617 c 1.58214,-0.62414 1.75,-2.53651 1.75,-19.93663 v -19.24628 l -7.65088,-0.64673 c -14.0482,-1.18751 -36.81098,-0.73244 -44.52441,0.89013 -22.94913,4.8275 -33.20843,19.07941 -21.88536,30.40248 8.45408,8.45408 16.62376,10.12374 47.06065,9.61792 12.925,-0.21479 24.2875,-0.70119 25.25,-1.08089 z m 179.95081,0.39924 c 8.629,-1.83088 17.1268,-6.88232 19.7158,-11.71976 1.7142,-3.20306 1.589,-9.27749 -0.2652,-12.86308 -3.4609,-6.69262 -15.2221,-13.41849 -26.6514,-15.24112 -7.2504,-1.15622 -28.7541,-1.38488 -40.0991,-0.4264 l -7.4009,0.62527 -0.1416,16.62473 c -0.078,9.14361 -0.3029,17.97474 -0.5,19.62474 l -0.3584,3 9.5,0.55858 c 17.6761,1.03933 40.873,0.94747 46.2008,-0.18296 z m -98.9251,-40.44706 c 12.6142,-3.26869 22.472,-10.10394 24.8163,-17.20746 1.4841,-4.49669 0.742,-12.72111 -1.5877,-17.59732 -4.502,-9.42279 -17.6125,-18.33692 -33.3219,-22.65625 l -7.3175,-2.01198 -7.1825,2.1079 c -27.938,8.19924 -41.71996,26.0885 -33.1411,43.01799 3.7532,7.40672 13.0086,12.66083 26.2221,14.88575 8.4406,1.42127 25.044,1.13747 31.5123,-0.53863 z" />
      </g>
    </g>
  </g>
</svg>
