<svg xmlns="http://www.w3.org/2000/svg" width="512" height="512"><path d="M587.404 201.056v-256h512v512h-512z" style="fill:#d4aa00" transform="translate(-584.244 58.115)"/><path d="M906.426 403.799c2.303-2.084 2.39-3.16 2.39-29.25v-27.086h32.979c36.416 0 39.268-.448 42.485-6.67 1.497-2.894 1.78-8.733 1.78-36.723v-33.282l17.255.387c23.729.534 28.801-.212 33.517-4.927l3.752-3.753v-109.24l-3.312-3.71-3.312-3.71-23.666-.567-23.666-.568-.296-36.35c-.27-33.206-.476-36.595-2.381-39.19-4.01-5.458-5.369-5.645-41.27-5.663-31.368-.015-33.72-.155-33.686-2.004.285-15.389-.41-71.809-.91-73.801-1.548-6.166-3.014-6.325-63.614-6.906-30.703-.293-57.142-.203-58.752.2-1.61.405-3.995 1.88-5.3 3.278-2.323 2.49-2.365 3.326-2.02 40.595l.354 38.054-37.538.568c-33.666.51-37.86.779-40.66 2.615-1.718 1.126-3.662 3.426-4.322 5.112-.767 1.96-1.09 14.514-.897 34.87.166 17.493.217 33.438.114 35.432l-.188 3.625-22.814.35-22.814.35-3.312 3.71-3.313 3.71.017 53.655c.018 57.536-.034 56.994 5.916 61.411 2.838 2.106 4.87 2.303 24.608 2.381l21.514.085.742 12.496c.408 6.872.58 22.04.383 33.706-.34 20.049-.228 21.386 2.02 24.422 4.134 5.583 7.116 5.973 45.33 5.917l35.214-.052-.325 26.798-.324 26.799 2.858 2.858 2.858 2.858 60.108-.314c57.274-.298 60.22-.415 62.498-2.477z" style="fill:#e3dedb;stroke-width:1.13593" transform="translate(-584.244 58.115)"/><path d="M982.278 550.425c-10.546-3.373-17-8.942-21.458-18.516-4.652-9.991-2.33-22.303 5.75-30.477 9.094-9.201 17.806-11.539 23.898-6.413l3.18 2.676-3.118-6.176c-1.714-3.396-3.398-6.175-3.742-6.175-.344 0-1.178.755-1.853 1.679-1.1 1.504-4.224 1.679-30.11 1.68-26.325 0-29.561-.187-36.537-2.114-14.214-3.926-21.652-9.278-27.03-19.45-3.328-6.292-3.292-19.33.071-26.104 5.142-10.355 15.794-17.677 31.612-21.729 7.2-1.844 10.677-2.03 34.772-1.86 14.724.103 26.962-.003 27.195-.236.233-.233.918-3.514 1.521-7.291.604-3.777 1.926-9.224 2.938-12.104 2.004-5.703 8.332-15.561 12.43-19.365l2.58-2.394-2.428-2.886c-3.534-4.2-4.26-9.343-1.784-12.658 4.388-5.878 13.524-4.958 19.805 1.995l3.447 3.816 3.606-1.72c3.352-1.598 3.565-1.966 3.037-5.24-.313-1.935-4.293-10.944-8.844-20.02l-8.275-16.5-6-3.12c-9.962-5.18-13.49-13.48-8.045-18.925 3.284-3.284 6.954-3.124 13.832.601 8.517 4.613 12.325 9.732 20.502 27.556 9.094 19.823 8.528 18.83 10.929 19.19 1.518.228 2.517-.755 4.062-4l8.48-17.801c3.538-7.425 7.679-14.977 9.202-16.781 3.406-4.037 10.632-9.099 14.62-10.243 8.767-2.514 15.079 7.432 9.087 14.32-.86.988-4.249 3.228-7.532 4.978-7.402 3.945-9.3 6.811-18.108 27.343-7.154 16.678-7.183 17.04-1.524 19.385 2.756 1.141 3.224.967 7.492-2.79 8.669-7.63 15.019-8.895 20.205-4.023 1.674 1.572 2.298 3.275 2.298 6.263 0 4.892-1.83 7.82-5.96 9.531-1.672.693-3.04 1.43-3.04 1.64 0 .21 1.747 1.96 3.88 3.888 6.6 5.962 13.293 20.807 14.648 32.489l.638 5.5 24.069-.317c27.895-.367 33.967.531 46.709 6.908 15.54 7.779 24.476 21.776 22.102 34.622-2.726 14.747-12.138 23.286-30.924 28.057-9.142 2.322-61.677 2.567-63.082.294-1.345-2.176-3.456.033-7.64 7.995-4.021 7.653-14.866 20.826-20.036 24.34l-3.428 2.329 2.55 1.67c2.397 1.57 2.591 1.566 3.225-.087.371-.967 4.162-6.495 8.424-12.285s9.028-12.326 10.592-14.526c3.715-5.23 7.39-5.691 14.927-1.878 14.077 7.122 21.197 24.3 15.381 37.11-2.996 6.6-10.215 13.624-17.3 16.83-9.11 4.123-18.02 4.039-26.235-.249-3.3-1.722-7.535-4.635-9.411-6.472-4.246-4.157-9.089-11.638-9.089-14.037 0-1.87-1.483-2.45-2.413-.944-.293.474-3.32 1.643-6.727 2.599-9.082 2.548-17.187 1.488-30.11-3.938-1.355-.57-1.75-.245-1.75 1.437 0 4.521-6.63 13.316-13.714 18.189-4.687 3.225-14.742 6.896-18.625 6.799-1.188-.03-4.71-.869-7.824-1.865z" style="fill:#000" transform="translate(-783.523 -179.926)"/><path d="M1053.057 518.59c6.462-2.455 16.687-10.77 21.904-17.812 10.1-13.63 14.23-27.19 14.45-47.444.082-7.514-.186-14-.595-14.411-.41-.412-2.885.4-5.5 1.805-12.45 6.688-33.988 11.479-46.255 10.29-9.375-.91-23.367-5.09-31.818-9.507-6.387-3.338-7.405-3.614-8-2.17-.375.911-.655 7.956-.62 15.656.05 11.26.492 15.528 2.263 21.81 5.289 18.762 15.935 32.33 31.559 40.215 8.134 4.106 14.73 4.563 22.612 1.569zm-73.746-42.616c1.582-.625 1.75-2.537 1.75-19.937V436.79l-7.651-.647c-14.048-1.188-36.811-.733-44.525.89-22.949 4.828-33.208 19.08-21.885 30.403 8.454 8.454 16.624 10.123 47.06 9.617 12.926-.214 24.288-.7 25.25-1.08zm179.95.399c8.63-1.831 17.127-6.883 19.716-11.72 1.714-3.203 1.59-9.277-.265-12.863-3.46-6.693-15.222-13.419-26.651-15.241-7.25-1.156-28.754-1.385-40.1-.427l-7.4.626-.142 16.624c-.078 9.144-.303 17.975-.5 19.625l-.358 3 9.5.559c17.676 1.04 40.873.947 46.2-.183zm-98.925-40.447c12.615-3.269 22.472-10.104 24.817-17.208 1.484-4.496.742-12.72-1.588-17.597-4.502-9.423-17.613-18.337-33.322-22.656l-7.317-2.012-7.183 2.108c-27.938 8.199-41.72 26.088-33.141 43.018 3.753 7.406 13.009 12.66 26.222 14.885 8.44 1.422 25.044 1.138 31.512-.538z" style="fill:#d4aa00" transform="translate(-783.523 -179.926)"/></svg>