<svg xmlns="http://www.w3.org/2000/svg" width="512" height="512"><path d="M643.764 285.536c-6.866-.688-16.587-4.553-15.57-6.19.36-.58.023-.804-.758-.506-1.413.539-4.072-1.995-9.362-8.922-5.17-6.77-12.054-25.881-12.765-35.437-.21-2.834-.81-7.472-1.331-10.306-1.37-7.448-1.087-37.332.433-45.547 2.156-11.662 4.9-21.091 6.293-21.623a1.413 1.413 0 0 0 .804-1.83c-.282-.73.13-1.967.917-2.748.786-.782 1.51-1.885 1.61-2.452.354-2.012 5.911-8.711 7.247-8.735.746-.013 1.12-.404.833-.867-.289-.464.473-1.507 1.692-2.319 1.22-.812 3.265-2.47 4.546-3.685 1.281-1.216 2.58-1.96 2.886-1.656.306.304.85-.206 1.208-1.134.358-.928 1.072-1.429 1.587-1.113.515.317 1.624-.108 2.465-.944.89-.886 2.469-1.276 3.781-.934 1.535.399 2.02.21 1.52-.596-.476-.765-.169-.965.874-.567.885.338 1.609.18 1.609-.348 0-.53 1.465-.749 3.256-.488 2.293.335 3.037.122 2.515-.718-.549-.883 1.77-1.077 8.922-.745 5.315.246 9.664.52 9.664.61 0 .089 2.954.337 6.563.55 3.61.214 7.108.832 7.774 1.372 2.658 2.157 34.75 1.969 40.08-.235.854-.354 3.894-.78 6.753-.945 2.86-.166 5.806-.674 6.547-1.13.742-.455 1.624-.553 1.961-.218.337.335 1.122.193 1.745-.315 1.718-1.403 22.197-5.531 24.01-4.84.873.333 1.313.165.978-.374-.335-.54.69-.963 2.278-.942 1.588.021 5.686-.324 9.107-.767 3.42-.444 7.851-.708 9.846-.588 1.996.12 5.157.297 7.026.393 1.868.096 2.855.507 2.194.913-1.323.813 4.03 2.298 6.438 1.786.832-.177 1.298.349 1.1 1.239-.19.85-.023 1.224.372.831.395-.392 2.584.457 4.864 1.888 2.28 1.431 3.772 1.985 3.315 1.23-.667-1.103-.488-1.096.912.032.958.773 1.48 1.828 1.158 2.345-.321.516-.023.812.663.656.686-.156 1.337.678 1.446 1.854.222 2.398 2.619 6.19 4.199 6.642.57.163.881 1.203.693 2.312-.212 1.242.087 1.751.777 1.327.692-.425 1.12.32 1.12 1.949 0 1.45.43 2.637.955 2.637.872 0 2.282 4.43 2.63 8.262.078.86.497 2.136.93 2.834.434.698.962 3.58 1.174 6.403.211 2.824.6 5.491.862 5.927.263.435.812 6.019 1.219 12.408.58 9.098.436 11.988-.664 13.337-1.19 1.458-1.183 1.589.043.854 1.23-.737 1.337 2.369.71 20.671-.406 11.846-.726 22.814-.712 24.373.014 1.558-.342 2.834-.79 2.834-.45 0-.845 2.05-.879 4.558-.076 5.677-4.844 21.158-7.582 24.618-1.123 1.42-2.041 3.056-2.041 3.637 0 .58-.924 1.347-2.052 1.704-1.129.356-1.945 1.198-1.814 1.872.13.674-.345 1.11-1.058.968-.712-.142-1.295.168-1.295.688 0 2.15-9.33 4.414-18.815 4.566-12.677.205-40.171-1.29-42.258-2.296-2.25-1.085-46.625-.482-61.234.832-15.32 1.379-38.16 1.947-46.124 1.149zm163.248-162.87c-.934-.6-1.062-1.006-.32-1.015.679-.008 1.523.448 1.875 1.015.795 1.279.437 1.279-1.555 0z" style="fill:#fc0;fill-opacity:1;stroke-width:1.03352" transform="matrix(2.05883 0 0 2.63167 -1217.208 -276.17)"/><path d="M622.814 291.335c-8.02-4.32-18.64-18.725-23.085-31.318-6.1-17.282-7.237-24.772-7.997-52.71-.537-19.697-.383-23.103 1.465-32.527 3.46-20.07 9.483-27.365 19.545-41.974 5.577-8.153 16.219-15.049 27.912-18.086 8.81-2.288 23.847-2.505 35.236-.508 21.201 3.718 38.057 3.032 60.574-2.465 6.365-1.554 14.015-3.119 17-3.477 2.984-.359 6.55-.835 7.926-1.058 14.726-2.388 21.2-2.581 29.739-.887 16.36 3.246 26.036 9.535 33.777 21.955 6.436 10.327 10.841 24.588 12.982 42.026 1.382 11.26 2.527 39.482 2.05 50.5-.944 21.765-5.475 44.19-11.208 55.464-1.968 3.87-3.883 7.261-4.257 7.536-.374.275-1.701 1.963-2.95 3.75-5.611 6.264-14.697 9.118-21.133 10.995-4.555 1.312-28.443 1.024-53-.64-13.118-.89-25.392-1.076-37.5-.571-9.9.413-24.975.85-33.5.97-8.525.121-18.65.465-22.5.764-13.951 1.667-21.092-2.297-31.076-7.739zm66.076-7.571c13.563-1.345 62.333-1.39 71-.066 9.923 1.515 38.102 1.342 42.59-.263 4.835-1.728 10.434-6.123 12.914-10.136 3.448-5.579 7.937-20.513 9.166-30.493 1.577-12.808 1.508-63.19-.1-73.5-4.187-26.83-12.145-41.194-25.85-46.66-4.926-1.964-7.525-2.28-18.72-2.282-12.882 0-19.78.98-39 5.547-23.101 5.488-42.272 6.389-64.304 3.02-25.513-3.9-39.521-.7-52.808 12.058-13.832 13.282-19.748 34.241-18.86 66.817.903 33.146 7.81 56.378 20.323 68.36 1.643 1.573 5.61 4.138 8.818 5.7 5.79 2.821 5.965 2.84 25.33 2.865 10.726.013 24-.422 29.5-.967zm91.259-79.38c-6.12-2.185-8.832-4.487-10.966-9.311-2.443-5.524-2.057-13.064.876-17.091 2.742-3.767 9.904-7.176 15.075-7.176 5.804 0 10.138 1.964 13.972 6.33 8.152 9.284 3.448 23.465-9.012 27.165-5.955 1.77-5.236 1.763-9.945.082zm-140.759-.701c-3.303-1.317-6.83-4.683-8.725-8.328-2.269-4.363-1.901-12.8.743-17.079 6.382-10.325 24.6-10.02 29.968.504 3.504 6.867 2.402 14.874-2.8 20.358-4.845 5.108-12.956 7.03-19.186 4.545z" style="fill:#333;fill-opacity:1" transform="matrix(2.05883 0 0 2.63167 -1217.208 -276.17)"/><path d="M691.09 245.083c-2.437-2.694-1.707-7.226 1.42-8.805 1.892-.956 12.418 7.322 24.276 7.373 12.29.053 25.92-8.085 27.474-7.074 2.906 1.89 1.086 5.748-.065 8.243 0 0-3.469 10.143-27.279 10.143-22.882 0-24.212-8.097-25.826-9.88z" style="fill:#333;fill-opacity:1" transform="matrix(2.05883 0 0 2.63167 -1217.208 -276.17)"/></svg>